<?xml version="1.0" encoding="UTF-8" standalone="no"?>
<!-- Created with Inkscape (http://www.inkscape.org/) -->

<svg
   width="62.794441mm"
   height="62.794441mm"
   viewBox="0 0 62.794441 62.794441"
   version="1.1"
   id="svg1"
   xml:space="preserve"
   inkscape:version="1.4.2 (1:1.4.2+202505120738+ebf0e940d0)"
   sodipodi:docname="drc-viewer.svg"
   xmlns:inkscape="http://www.inkscape.org/namespaces/inkscape"
   xmlns:sodipodi="http://sodipodi.sourceforge.net/DTD/sodipodi-0.dtd"
   xmlns="http://www.w3.org/2000/svg"
   xmlns:svg="http://www.w3.org/2000/svg"><sodipodi:namedview
     id="namedview1"
     pagecolor="#ffffff"
     bordercolor="#000000"
     borderopacity="0.25"
     inkscape:showpageshadow="2"
     inkscape:pageopacity="0.0"
     inkscape:pagecheckerboard="0"
     inkscape:deskcolor="#d1d1d1"
     inkscape:document-units="mm"
     inkscape:zoom="1.5607744"
     inkscape:cx="138.07248"
     inkscape:cy="233.21756"
     inkscape:window-width="1859"
     inkscape:window-height="1056"
     inkscape:window-x="61"
     inkscape:window-y="24"
     inkscape:window-maximized="1"
     inkscape:current-layer="layer1" /><defs
     id="defs1" /><g
     inkscape:label="Layer 1"
     inkscape:groupmode="layer"
     id="layer1"
     transform="translate(-73.602783,-117.10278)"><path
       style="fill:#000000"
       d="m 101.57868,174.7124 c -0.38806,-0.0899 -1.578683,-0.33751 -2.645836,-0.55033 -9.064438,-1.80765 -16.999069,-9.51489 -19.631243,-19.06863 -0.84796,-3.07776 -0.84796,-10.20831 0,-13.28607 2.58528,-9.38354 9.622775,-16.39869 19.06715,-19.0066 2.999739,-0.82834 10.163639,-0.8221 13.252919,0.0115 14.9024,4.02134 23.29749,19.87668 18.23383,34.43723 -2.7843,8.00624 -9.85275,14.57117 -18.04627,16.76075 -2.08368,0.55683 -8.85204,1.02134 -10.23055,0.70212 z m 7.17051,-6.46101 c 0.34704,-0.22002 0.0833,-0.60103 -1.02225,-1.47662 -1.98886,-1.5752 -5.39685,-5.91013 -6.74584,-8.58062 -4.429623,-8.76902 -4.392987,-18.56188 0.10091,-26.97306 l 1.38326,-2.58904 -1.50163,0.24941 c -3.902916,0.64826 -8.659449,3.50165 -11.297712,6.77738 -3.071982,3.81423 -4.58893,8.10162 -4.585153,12.95913 0.004,5.11758 1.37737,9.2342 4.154743,12.45349 1.244312,1.4423 3.225463,2.78784 3.581109,2.4322 0.09252,-0.0925 -0.18228,-0.85524 -0.610662,-1.69494 -2.242678,-4.39601 -3.510048,-10.25586 -3.488889,-16.13131 0.01173,-3.25653 0.146134,-4.35267 0.649561,-5.29745 0.634284,-1.19036 0.634652,-1.18776 0.475495,3.35139 -0.246966,7.0435 0.84884,12.1858 3.983791,18.69475 l 1.548932,3.21597 2.200987,0.55443 c 1.210543,0.30494 2.313217,0.48507 2.450388,0.4003 0.13717,-0.0848 -0.445802,-1.21261 -1.295494,-2.50629 -1.779608,-2.7095 -3.300733,-6.19629 -4.44801,-10.19593 -1.606475,-5.6005 -0.866092,-18.28495 1.175105,-20.1322 0.361414,-0.32708 0.730496,-0.52131 0.820183,-0.43162 0.08969,0.0897 -0.147248,1.18673 -0.526522,2.43788 -3.156567,10.41289 -0.654631,22.47367 6.454488,31.1144 l 1.37868,1.6757 2.3484,-0.005 c 1.29162,-0.003 2.55887,-0.13885 2.81613,-0.30194 z m 2.14722,-3.00377 1.20385,-0.43521 -1.65845,-0.97192 c -1.49959,-0.87882 -1.77831,-0.93236 -2.90977,-0.55894 l -1.25133,0.41297 0.97818,1.021 c 1.05698,1.10325 1.7694,1.20746 3.63752,0.5321 z m 4.47111,-2.39313 c 0.85634,-0.61497 1.55698,-1.24997 1.55698,-1.41111 0,-0.16114 -0.62467,-0.29298 -1.38815,-0.29298 -0.76348,0 -1.8031,-0.15777 -2.31028,-0.35059 -0.74881,-0.2847 -1.11784,-0.20592 -1.96324,0.41912 -0.57261,0.42334 -1.0411,0.89482 -1.0411,1.04772 0,0.33666 2.45616,1.66852 3.11733,1.69038 0.25932,0.009 1.17213,-0.48757 2.02846,-1.10254 z m -7.08607,-1.1362 c 6.4179,-3.04298 7.9651,-11.50156 3.00494,-16.428 -1.07933,-1.072 -2.05128,-1.67268 -4.53148,-2.80057 -0.25752,-0.11711 -0.47524,-0.37168 -0.48383,-0.5657 -0.009,-0.19403 -0.40165,-0.81157 -0.87349,-1.37232 -0.47183,-0.56074 -0.77948,-1.22382 -0.68367,-1.47351 0.0958,-0.24969 -0.0666,-0.65381 -0.36088,-0.89806 -1.34622,-1.11726 -1.48926,2.79088 -0.19355,5.28805 0.5735,1.10527 0.87947,1.30908 2.26315,1.5075 0.87999,0.12619 1.99936,0.49112 2.48747,0.81095 1.19185,0.78093 1.86913,2.44846 1.40955,3.47044 -0.33715,0.74973 -0.36088,0.73693 -0.59561,-0.32139 -0.43657,-1.96831 -1.64865,-2.72474 -4.8,-2.99556 -2.03845,-0.17518 -3.24329,-0.49032 -4.44721,-1.1632 -0.908209,-0.50761 -1.720603,-0.85361 -1.805319,-0.7689 -0.08472,0.0847 -0.02089,0.98672 0.141842,2.00446 0.323072,2.02055 0.356218,2.04311 4.603157,3.13424 l 1.48507,0.38155 -0.074,1.72554 c -0.0601,1.40132 0.0865,1.89636 0.77998,2.63468 0.46967,0.50002 0.7571,1.00597 0.63874,1.12433 -0.41498,0.41498 -1.97665,-1.55669 -2.35969,-2.97919 -0.45857,-1.703 -0.72371,-1.90098 -2.92378,-2.18323 -1.947832,-0.24988 -1.963789,-0.20965 -1.102383,2.77904 0.683903,2.37284 2.623113,6.34535 4.116523,8.43277 1.25163,1.74947 1.81672,1.83561 4.30443,0.65608 z m 10.54502,-3.04447 c 0.92525,-2.31243 0.83398,-2.47346 -1.0761,-1.89861 -0.90396,0.27205 -2.0691,0.49464 -2.5892,0.49464 -0.67853,0 -1.08299,0.27402 -1.43191,0.97014 -0.26745,0.53357 -0.53985,1.07587 -0.60532,1.20509 -0.17728,0.34992 0.91383,0.56019 3.14489,0.60607 l 1.99017,0.0409 z m -1.26045,-3.00514 c 1.63649,-0.48598 1.82792,-0.64608 1.82792,-1.5287 0,-0.54223 -0.0826,-1.06848 -0.18357,-1.16944 -0.10096,-0.10096 -0.89698,0.1776 -1.76892,0.61904 -0.87194,0.44143 -1.72085,0.85477 -1.88647,0.91852 -0.16561,0.0637 -0.41216,0.4731 -0.5479,0.90967 -0.30004,0.96499 0.0416,0.99849 2.55894,0.25091 z m -0.0242,-3.33385 c 1.27934,-0.78004 1.35456,-0.99563 0.67267,-1.92817 -0.45512,-0.62242 -0.51791,-0.61548 -1.5875,0.1753 -0.69113,0.51097 -1.11364,1.13279 -1.11364,1.63895 0,0.99821 0.52937,1.02793 2.02847,0.11392 z m -0.88319,-3.10969 c 0.47547,-0.40828 0.52378,-0.64031 0.21163,-1.01642 -0.33791,-0.40716 -0.53672,-0.36314 -1.20799,0.26749 -0.44193,0.41517 -0.71897,0.97517 -0.61564,1.24444 0.19601,0.5108 0.57619,0.39394 1.612,-0.49551 z m -1.18413,-1.96265 c 0.30278,-0.36483 0.28174,-0.58078 -0.0864,-0.8863 -0.37185,-0.30861 -0.58817,-0.28167 -0.91665,0.11413 -0.42639,0.51376 -0.241,1.25453 0.31396,1.25453 0.15881,0 0.4689,-0.21706 0.68908,-0.48236 z m -1.37225,-1.99816 c 0,-0.42233 -0.99506,-0.87535 -1.28527,-0.58514 -0.30893,0.30893 0.21507,0.94899 0.77692,0.94899 0.27959,0 0.50835,-0.16373 0.50835,-0.36385 z m 4.25492,-1.80578 c -1.57052,-0.80524 -2.7972,-1.52236 -2.72595,-1.59361 0.0713,-0.0712 1.20257,0.37258 2.51405,0.9863 1.31148,0.61371 2.96237,1.1324 3.66865,1.15264 l 1.28415,0.0368 0.0504,-1.84866 0.0504,-1.84866 -1.40313,-0.37783 c -1.75346,-0.47216 -5.35604,-3.81345 -5.02941,-4.66463 0.15778,-0.41118 -0.19877,-0.77595 -1.3119,-1.34216 -0.84071,-0.42765 -2.26372,-1.43703 -3.16224,-2.24307 -1.34703,-1.2084 -4.18715,-2.63679 -4.18715,-2.10586 0,0.44118 1.51593,1.55448 2.11666,1.55448 0.38806,0 0.70555,0.15875 0.70555,0.35278 0,0.19403 -0.32259,0.35278 -0.71688,0.35278 -0.39429,0 -1.25797,0.22608 -1.9193,0.5024 -1.34924,0.56375 -1.77474,0.31072 -2.03132,-1.20796 l -0.14901,-0.88194 -0.36043,0.86639 c -0.31753,0.76328 -0.27214,1.33144 0.28265,3.53848 0.0937,0.37271 -0.2489,0.57673 -1.18477,0.70556 l -1.31657,0.18124 0.92172,1.17279 c 0.50695,0.64504 1.3188,1.32377 1.8041,1.50828 0.84802,0.32241 0.8583,0.36209 0.26399,1.01879 -0.59673,0.65938 -0.57436,0.70929 0.63907,1.42523 0.7244,0.42741 1.18267,0.93679 1.08104,1.20163 -0.28525,0.74336 1.23443,0.91049 2.95803,0.32531 2.03775,-0.69183 3.23141,-0.44387 6.07768,1.26257 1.26118,0.75612 2.66259,1.38809 3.11424,1.40439 0.49553,0.0179 -0.31119,-0.55098 -2.03431,-1.43446 z m 1.03673,-1.71092 c 0,-0.19403 0.30813,-0.35278 0.68474,-0.35278 0.3766,0 0.78285,0.15875 0.90276,0.35278 0.12366,0.20008 -0.17272,0.35277 -0.68473,0.35277 -0.49652,0 -0.90277,-0.15875 -0.90277,-0.35277 z m 1.99959,-0.14903 c -0.1059,-0.27599 -0.55945,-0.57187 -1.00788,-0.65751 -0.61589,-0.11762 -0.53487,-0.16746 0.33121,-0.20375 0.63059,-0.0264 1.14653,0.0183 1.14653,0.0995 0,0.0811 0.0964,0.39864 0.21413,0.70555 0.11777,0.30691 0.0554,0.55802 -0.13865,0.55802 -0.19403,0 -0.43943,-0.22581 -0.54534,-0.5018 z m -9.05514,-3.70141 c 0,-0.22823 -0.38965,-0.80463 -0.8659,-1.28088 l -0.86591,-0.8659 h 0.78741 c 0.43308,0 1.10055,0.21174 1.48327,0.47054 1.22094,0.82562 1.89324,0.9275 2.44953,0.37121 0.45803,-0.45803 0.53937,-0.46228 0.53937,-0.0282 0,0.74777 -0.82319,1.30932 -2.26156,1.54274 -0.85192,0.13824 -1.26621,0.0697 -1.26621,-0.2095 z m -0.51466,5.6378 c -0.12789,-0.20694 -0.49163,-0.37625 -0.8083,-0.37625 -0.48153,0 -0.46378,0.0819 0.10846,0.50032 0.73891,0.54031 1.07376,0.48094 0.69984,-0.12407 z"
       id="path2-2" /></g></svg>
